<?xml version="1.0" encoding="utf-8"?>
<!-- Generator: Adobe Illustrator 16.2.1, SVG Export Plug-In . SVG Version: 6.00 Build 0)  -->
<!DOCTYPE svg PUBLIC "-//W3C//DTD SVG 1.1//EN" "http://www.w3.org/Graphics/SVG/1.1/DTD/svg11.dtd">
<svg version="1.1" id="Icons" xmlns="http://www.w3.org/2000/svg" xmlns:xlink="http://www.w3.org/1999/xlink" x="0px" y="0px"
	 width="71.924px" height="71.924px" viewBox="0 0 71.924 71.924" enable-background="new 0 0 71.924 71.924" xml:space="preserve">
<g>
	<path fill="#749EB0" d="M21.309,59.337c-0.085-0.021-0.169-0.044-0.254-0.066C21.14,59.293,21.224,59.315,21.309,59.337z"/>
	<path fill="#749EB0" d="M23.25,59.655c-0.078-0.006-0.155-0.012-0.232-0.021C23.095,59.646,23.172,59.649,23.25,59.655z"/>
	<path fill="#749EB0" d="M22.168,59.522c-0.016-0.002-0.032-0.008-0.048-0.01C22.136,59.517,22.152,59.521,22.168,59.522z"/>
	<path fill="#749EB0" d="M24.039,59.69c0.028,0,0.057-0.004,0.085-0.004c-0.076,0.002-0.154-0.002-0.23-0.002
		C23.941,59.687,23.99,59.69,24.039,59.69z"/>
	<path fill="#749EB0" d="M17.476,57.84c-0.072-0.038-0.146-0.073-0.219-0.112C17.33,57.767,17.403,57.802,17.476,57.84z"/>
	<path fill="#749EB0" d="M20.396,59.077c-0.076-0.025-0.153-0.049-0.229-0.074C20.242,59.028,20.319,59.052,20.396,59.077z"/>
	<path fill="#749EB0" d="M16.389,57.237c-0.068-0.041-0.136-0.082-0.205-0.125C16.253,57.155,16.32,57.196,16.389,57.237z"/>
	<path fill="#749EB0" d="M18.42,58.306c-0.09-0.043-0.18-0.084-0.269-0.127C18.24,58.222,18.33,58.263,18.42,58.306z"/>
	<path fill="#749EB0" d="M19.302,58.687c-0.051-0.02-0.1-0.043-0.149-0.062C19.202,58.644,19.251,58.667,19.302,58.687z"/>
	<path fill="#749EB0" d="M24.921,59.649c-0.014,0.002-0.027,0.002-0.042,0.004C24.894,59.651,24.907,59.651,24.921,59.649z"/>
	<path fill="#749EB0" d="M29.897,57.505c-0.069,0.059-0.141,0.114-0.212,0.17C29.757,57.619,29.828,57.563,29.897,57.505z"/>
	<path fill="#749EB0" d="M13.975,18.335c0.456-0.675,1.017-1.359,1.683-2.055c-0.06,0.059-0.122,0.108-0.182,0.167
		C14.869,17.054,14.375,17.684,13.975,18.335z"/>
	<path fill="#749EB0" d="M29.185,58.056c-0.077,0.053-0.153,0.107-0.23,0.157C29.031,58.163,29.107,58.106,29.185,58.056z"/>
	<path fill="#749EB0" d="M27.495,59.004c-0.061,0.024-0.119,0.045-0.179,0.069C27.376,59.049,27.435,59.028,27.495,59.004z"/>
	<path fill="#749EB0" d="M26.734,59.281c-0.081,0.024-0.164,0.049-0.245,0.071C26.57,59.33,26.653,59.308,26.734,59.281z"/>
	<path fill="#749EB0" d="M28.388,58.56c-0.053,0.029-0.104,0.063-0.156,0.092C28.284,58.623,28.335,58.589,28.388,58.56z"/>
	<path fill="#749EB0" d="M25.926,59.492c-0.074,0.016-0.146,0.032-0.219,0.047C25.779,59.524,25.852,59.508,25.926,59.492z"/>
	<path fill="#749EB0" d="M8.465,26.347c0.007-0.001,0.014,0,0.021-0.001C8.479,26.347,8.472,26.346,8.465,26.347z"/>
	<path fill="#749EB0" d="M5.895,26.992c0.053-0.022,0.104-0.04,0.158-0.062C5.999,26.952,5.947,26.97,5.895,26.992z"/>
	<path fill="#749EB0" d="M5.009,27.43c0.048-0.025,0.094-0.056,0.142-0.082C5.103,27.374,5.057,27.404,5.009,27.43z"/>
	<path fill="#749EB0" d="M4.205,27.94c0.074-0.053,0.148-0.104,0.221-0.154C4.354,27.836,4.279,27.888,4.205,27.94z"/>
	<path fill="#749EB0" d="M7.466,26.504c0.07-0.014,0.139-0.031,0.208-0.044C7.604,26.473,7.536,26.49,7.466,26.504z"/>
	<path fill="#749EB0" d="M15.501,56.688c-0.094-0.06-0.187-0.121-0.28-0.181C15.314,56.567,15.407,56.63,15.501,56.688z"/>
	<path fill="#749EB0" d="M3.49,28.491c0.067-0.058,0.136-0.11,0.205-0.166C3.626,28.381,3.558,28.434,3.49,28.491z"/>
	<path fill="#749EB0" d="M6.656,26.715c0.077-0.023,0.153-0.047,0.231-0.069C6.81,26.668,6.733,26.691,6.656,26.715z"/>
	<path fill="#749EB0" d="M14.521,56.034c-0.061-0.043-0.121-0.083-0.181-0.126C14.4,55.951,14.461,55.991,14.521,56.034z"/>
	<path fill="#749EB0" d="M12.586,54.582c-0.088-0.071-0.176-0.142-0.263-0.214C12.41,54.44,12.498,54.511,12.586,54.582z"/>
	<path fill="#749EB0" d="M9.734,52.085c-0.083-0.077-0.166-0.154-0.249-0.234C9.568,51.931,9.651,52.008,9.734,52.085z"/>
	<path fill="#749EB0" d="M13.476,55.274c-0.077-0.059-0.154-0.117-0.23-0.178C13.321,55.157,13.398,55.217,13.476,55.274z"/>
	<path fill="#749EB0" d="M11.573,53.744c-0.038-0.033-0.078-0.065-0.116-0.101C11.495,53.679,11.535,53.711,11.573,53.744z"/>
	<path fill="#749EB0" d="M10.606,52.896c-0.079-0.072-0.159-0.146-0.239-0.22C10.447,52.749,10.527,52.821,10.606,52.896z"/>
	<path fill="#749EB0" d="M40.319,19.371c4.496,4.498,7.496,8.863,8.916,12.978c0.115,0.334,0.22,0.667,0.312,0.999
		c2.646,0.208,5.15-0.587,7.335-2.771c6.089-6.089,1.419-14.656-5.847-21.922C43.772,1.389,35.204-3.28,29.115,2.808
		c-2.182,2.182-2.978,4.685-2.772,7.328C30.739,11.381,35.42,14.473,40.319,19.371z"/>
	<path fill="#749EB0" d="M24.73,34.961c-3.668-3.668-7.666-6.671-11.51-7.966c-0.08-0.026-0.159-0.05-0.239-0.075
		c-0.219-0.07-0.435-0.134-0.65-0.191c-0.086-0.022-0.172-0.047-0.259-0.067c-0.271-0.067-0.544-0.128-0.812-0.176
		c-0.015-0.003-0.029-0.007-0.044-0.01c-0.286-0.05-0.569-0.086-0.852-0.113c-0.076-0.009-0.151-0.014-0.229-0.02
		c-0.219-0.017-0.437-0.027-0.652-0.03c-0.074-0.001-0.148-0.003-0.222-0.002c-0.261,0.002-0.52,0.013-0.777,0.035
		c-0.007,0.001-0.014,0-0.021,0.001c-0.264,0.026-0.527,0.065-0.79,0.113c-0.069,0.013-0.138,0.03-0.208,0.044
		c-0.193,0.041-0.386,0.088-0.578,0.142c-0.078,0.022-0.154,0.046-0.231,0.069c-0.203,0.063-0.403,0.136-0.604,0.216
		c-0.054,0.021-0.105,0.039-0.158,0.062c-0.251,0.104-0.499,0.224-0.744,0.355c-0.048,0.026-0.094,0.057-0.142,0.082
		c-0.195,0.111-0.39,0.229-0.583,0.356c-0.072,0.05-0.146,0.102-0.221,0.154c-0.171,0.121-0.342,0.25-0.51,0.385
		c-0.069,0.056-0.138,0.108-0.205,0.166c-0.23,0.194-0.459,0.399-0.682,0.622c-6.09,6.092-1.42,14.658,5.846,21.924
		c0.274,0.276,0.553,0.545,0.831,0.812c0.083,0.08,0.166,0.158,0.249,0.235c0.21,0.199,0.421,0.396,0.633,0.591
		c0.08,0.073,0.16,0.146,0.239,0.219c0.283,0.256,0.565,0.506,0.851,0.75c0.038,0.035,0.078,0.066,0.116,0.101
		c0.249,0.212,0.499,0.42,0.75,0.624c0.087,0.072,0.175,0.143,0.263,0.214c0.219,0.175,0.439,0.347,0.659,0.517
		c0.076,0.06,0.153,0.118,0.23,0.178c0.287,0.217,0.575,0.429,0.865,0.633c0.06,0.043,0.12,0.083,0.181,0.126
		c0.232,0.161,0.466,0.319,0.699,0.475c0.094,0.06,0.187,0.121,0.28,0.181c0.227,0.146,0.455,0.287,0.683,0.425
		c0.069,0.042,0.137,0.084,0.205,0.124c0.289,0.172,0.579,0.334,0.868,0.488c0.073,0.039,0.146,0.076,0.219,0.113
		c0.225,0.118,0.449,0.23,0.676,0.338c0.089,0.043,0.179,0.086,0.269,0.127c0.244,0.112,0.488,0.219,0.732,0.319
		c0.05,0.021,0.099,0.043,0.149,0.062c0.289,0.117,0.577,0.223,0.864,0.317c0.076,0.026,0.153,0.05,0.229,0.074
		c0.22,0.069,0.44,0.135,0.659,0.192c0.085,0.022,0.169,0.047,0.254,0.066c0.271,0.066,0.541,0.127,0.812,0.176
		c0.016,0.004,0.032,0.008,0.048,0.012c0.285,0.049,0.567,0.084,0.85,0.111c0.077,0.01,0.154,0.014,0.232,0.021
		c0.215,0.016,0.431,0.024,0.644,0.028c0.076,0.002,0.154,0.004,0.23,0.004c0.253-0.002,0.505-0.014,0.755-0.035
		c0.015,0,0.028,0,0.042-0.002c0.264-0.024,0.524-0.064,0.786-0.111c0.072-0.014,0.145-0.031,0.219-0.047
		c0.188-0.04,0.376-0.085,0.563-0.139c0.081-0.023,0.164-0.047,0.245-0.072c0.195-0.062,0.389-0.133,0.582-0.208
		c0.06-0.024,0.118-0.044,0.179-0.069c0.248-0.104,0.493-0.222,0.736-0.354c0.053-0.027,0.104-0.062,0.156-0.092
		c0.189-0.106,0.38-0.223,0.566-0.347c0.077-0.05,0.153-0.104,0.23-0.157c0.168-0.119,0.336-0.248,0.501-0.381
		c0.071-0.056,0.143-0.111,0.212-0.17c0.229-0.195,0.456-0.398,0.68-0.622C36.665,50.793,31.996,42.228,24.73,34.961z"/>
	<path fill="#749EB0" d="M69.806,59.574L50.001,39.771l-4.159-4.159c-0.844-4.382-4.2-9.07-8.444-13.316
		c-4.923-4.923-10.442-8.656-15.386-8.656c-2.279,0-4.434,0.805-6.354,2.642c-0.666,0.695-1.227,1.38-1.683,2.055
		c-0.819,1.33-1.227,2.748-1.293,4.22c4.683,1.039,9.701,4.212,14.972,9.483c6.083,6.083,8.753,11.223,9.562,15.408l3.179,3.178
		l19.182,19.182c1.412,1.412,3.265,2.118,5.115,2.118c1.852,0,3.701-0.706,5.115-2.118C72.63,66.979,72.63,62.399,69.806,59.574z"/>
</g>
</svg>
