<?xml version="1.0" encoding="utf-8"?>
<!-- Generator: Adobe Illustrator 16.2.1, SVG Export Plug-In . SVG Version: 6.00 Build 0)  -->
<!DOCTYPE svg PUBLIC "-//W3C//DTD SVG 1.1//EN" "http://www.w3.org/Graphics/SVG/1.1/DTD/svg11.dtd">
<svg version="1.1" id="Icons" xmlns="http://www.w3.org/2000/svg" xmlns:xlink="http://www.w3.org/1999/xlink" x="0px" y="0px"
	 width="71.961px" height="66.273px" viewBox="0 0 71.961 66.273" enable-background="new 0 0 71.961 66.273" xml:space="preserve">
<g>
	<path fill="#749EB0" d="M4.941,54.528h9.487c0.084,0.005,0.167,0.014,0.251,0.014c0.086,0,0.168-0.009,0.252-0.014h13.605
		c0.084,0.005,0.166,0.014,0.251,0.014s0.167-0.009,0.251-0.014h13.745c0.084,0.005,0.167,0.014,0.251,0.014
		c0.086,0,0.168-0.009,0.252-0.014h13.728c0.084,0.005,0.166,0.014,0.252,0.014c0.084,0,0.166-0.009,0.25-0.014h9.289
		c0.99,0,1.803-0.81,1.803-1.801V50.37c0-0.991-0.812-1.802-1.803-1.802h-4.119c0-1.533-0.644-2.917-1.668-3.901V25.809l5.862-0.007
		c0.991-0.001,1.804-0.812,1.804-1.803v-2.896c0-0.989-0.693-2.221-1.543-2.733L37.415,0.384c-0.849-0.513-2.233-0.513-3.081,0.002
		L4.682,18.369c-0.848,0.514-1.531,1.743-1.52,2.733l0.035,2.972c0.011,0.99,0.831,1.8,1.821,1.799l5.907-0.007v18.801
		C9.9,45.653,9.26,47.035,9.259,48.569H4.941c-0.99,0-1.801,0.812-1.801,1.802v2.356C3.141,53.719,3.951,54.528,4.941,54.528z
		 M39.281,25.834v18.834c-1.025,0.984-1.666,2.367-1.668,3.9h-3.404c0-1.533-0.643-2.916-1.668-3.9V25.842L39.281,25.834z
		 M53.512,44.667c-1.025,0.984-1.666,2.368-1.668,3.901h-3.389c-0.001-1.533-0.643-2.916-1.667-3.9V25.825l6.724-0.009V44.667z
		 M35.93,7.826c3.05,0,5.524,2.474,5.524,5.523c0,3.051-2.474,5.526-5.524,5.526c-3.053,0-5.525-2.476-5.525-5.526
		C30.404,10.3,32.877,7.826,35.93,7.826z M25.035,25.851v18.816c-1.025,0.984-1.667,2.368-1.668,3.901h-3.266
		c-0.001-1.533-0.643-2.917-1.668-3.901v-18.81L25.035,25.851z"/>
	<path fill="#749EB0" d="M70.16,57.414H1.803C0.812,57.414,0,58.224,0,59.215v5.258c0,0.99,0.812,1.801,1.803,1.801H70.16
		c0.99,0,1.801-0.811,1.801-1.801v-5.258C71.961,58.224,71.15,57.414,70.16,57.414z"/>
</g>
</svg>
