<?xml version="1.0" encoding="utf-8"?>
<!-- Generator: Adobe Illustrator 16.2.1, SVG Export Plug-In . SVG Version: 6.00 Build 0)  -->
<!DOCTYPE svg PUBLIC "-//W3C//DTD SVG 1.1//EN" "http://www.w3.org/Graphics/SVG/1.1/DTD/svg11.dtd">
<svg version="1.1" id="Icons" xmlns="http://www.w3.org/2000/svg" xmlns:xlink="http://www.w3.org/1999/xlink" x="0px" y="0px"
	 width="60.145px" height="72px" viewBox="0 0 60.145 72" enable-background="new 0 0 60.145 72" xml:space="preserve">
<g>
	<path fill="#749EB0" d="M2.09,57.811c-0.084,0-0.165-0.009-0.249-0.013C0.806,57.923,0,58.794,0,59.862V69.91
		C0,71.062,0.936,72,2.09,72h55.965c1.154,0,2.09-0.938,2.09-2.09V59.862c0-1.067-0.806-1.938-1.841-2.063
		c-0.084,0.004-0.165,0.013-0.249,0.013H2.09z M52.864,68.175c-1.646,0-2.982-1.336-2.982-2.984c0-1.646,1.336-2.982,2.982-2.982
		c1.647,0,2.984,1.336,2.984,2.982C55.849,66.839,54.512,68.175,52.864,68.175z"/>
	<path fill="#749EB0" d="M58.055,40.096H2.09c-1.154,0-2.09,0.937-2.09,2.089v10.047c0,1.154,0.936,2.092,2.09,2.092h55.965
		c1.154,0,2.09-0.938,2.09-2.092V42.185C60.145,41.033,59.209,40.096,58.055,40.096z M52.864,44.53c1.647,0,2.984,1.337,2.984,2.982
		c0,1.649-1.337,2.985-2.984,2.985c-1.646,0-2.982-1.336-2.982-2.985C49.881,45.867,51.217,44.53,52.864,44.53z"/>
	<path fill="#749EB0" d="M58.055,18.812c0.243,0,0.479,0.021,0.714,0.052L54.102,3.007c0-1.66-1.346-3.007-3.007-3.007H9.035
		C7.374,0,6.029,1.347,6.029,3.007l-4.67,15.859c0.24-0.031,0.481-0.054,0.73-0.054H58.055z"/>
	<path fill="#749EB0" d="M2.09,36.527h55.965c1.154,0,2.09-0.936,2.09-2.09V24.392c0-1.154-0.936-2.089-2.09-2.089H2.09
		c-1.154,0-2.09,0.935-2.09,2.089v10.046C0,35.592,0.936,36.527,2.09,36.527z M52.864,32.704c-1.646,0-2.982-1.336-2.982-2.984
		c0-1.648,1.336-2.983,2.982-2.983c1.647,0,2.984,1.335,2.984,2.983C55.848,31.368,54.512,32.704,52.864,32.704z"/>
</g>
</svg>
