<?xml version="1.0" encoding="utf-8"?>
<!-- Generator: Adobe Illustrator 16.2.1, SVG Export Plug-In . SVG Version: 6.00 Build 0)  -->
<!DOCTYPE svg PUBLIC "-//W3C//DTD SVG 1.1//EN" "http://www.w3.org/Graphics/SVG/1.1/DTD/svg11.dtd">
<svg version="1.1" id="Icons" xmlns="http://www.w3.org/2000/svg" xmlns:xlink="http://www.w3.org/1999/xlink" x="0px" y="0px"
	 width="71.924px" height="71.924px" viewBox="0 0 71.924 71.924" enable-background="new 0 0 71.924 71.924" xml:space="preserve">
<g>
	<path fill="#ffffff" d="M71.968,59.514c0,0-0.024-3.513-5.742-6.668c-2.495-1.373-5.377-1.981-10.14-2.976
		c-0.26-0.528-0.985-2.961-1.481-5.55c0.12,0.01,0.847,0.763,0.98,0.763c0.285,0,0.606-0.024,0.959-0.077
		c0.188-0.027,2.354-0.557,3.348-0.557c0.272,0,0.458,0.038,0.491,0.139c0.041,0.132,0.291,0.182,0.634,0.182
		c-0.057-0.189-0.103-0.386-0.126-0.593l-0.946-2.956c0,0,0.885-1.39,1.495-1.039c0.61,0.348,1.61-0.329,1.61-0.329
		c0.659-6.832,1.438-20.737-4.305-26.035c-1.975-1.823-3.657-2.462-5.047-2.463c-1.473,0-2.618,0.724-3.438,1.525
		c-0.819-0.801-1.964-1.525-3.438-1.525c-1.388,0-3.07,0.642-5.043,2.463c-5.667,5.226-5.288,18.838-4.813,25.762
		c0,0,0.42-0.341,1.187,0.632c0.768,0.972,2.145,1.074,2.145,1.074l-0.777,3.457l-0.036,0.127c0.329-0.051,0.66-0.158,0.978-0.359
		c0.051-0.033,0.153-0.049,0.292-0.049c0.843,0,1.819,0.514,2.021,0.544c0.352,0.053,0.669,0.077,0.958,0.077
		c0.37,0,1.896-0.79,2.179-0.862c-0.32,1.635-1.021,4.557-1.609,5.7c-0.641,0.139-1.243,0.273-1.818,0.397
		c3.288,3.067,3.517,6.077,3.522,6.804v5.862v0.146l25.963-0.006V59.514L71.968,59.514z"/>
	<path fill="#ffffff" d="M37.852,50.457c-2.826-1.562-6.158-4.577-12.164-5.509c1.815-1.736,2.666-5.315,4.212-10.215
		c0.022-0.069,0.043-0.145,0.066-0.218c0.129,0.03,0.261,0.046,0.387,0.046c0.211,0,0.412-0.048,0.573-0.175
		c0.721-0.561,1.157-3.625,1.172-5.117c0.018-1.871-0.609-2.024-0.814-2.024c-0.041,0-0.064,0.008-0.064,0.008
		s-0.019-0.008-0.045-0.015c0.003-0.18,0.011-0.358,0.011-0.537c0-2.022,0.33-5.438-0.101-7.338
		c-0.649-2.874-0.518-3.954-1.701-5.512c-1.68-2.21-4.117-3.153-5.084-3.153c-0.524,0.002-2.647-0.907-4.515-0.907
		c-0.531,0-1.043,0.073-1.488,0.263c-1.951,0.83-0.869,3.298-2.463,3.301c-1.72,0-2.498,3.159-3.144,6.027
		c-0.419,1.851-0.098,5.221-0.098,7.32c0,0.176,0.009,0.352,0.013,0.527c-0.043,0.012-0.073,0.026-0.073,0.026
		s-0.024-0.008-0.065-0.008c-0.207,0-0.831,0.154-0.816,2.024c0.016,1.49,0.453,4.556,1.176,5.117
		c0.162,0.127,0.359,0.175,0.573,0.175c0.134,0,0.274-0.019,0.413-0.051c0.023,0.079,0.047,0.162,0.072,0.24
		c1.563,4.936,2.361,8.495,4.193,10.215c-5.947,0.954-9.257,3.948-12.065,5.504c-5.696,3.156-5.724,6.652-5.724,6.652v5.871
		l43.305-0.007v-5.864C43.594,57.122,43.569,53.615,37.852,50.457z"/>
</g>
</svg>
